<svg height='300px' width='300px'  fill="#000000" xmlns="http://www.w3.org/2000/svg" xmlns:xlink="http://www.w3.org/1999/xlink" version="1.1" x="0px" y="0px" viewBox="0 0 64 64" enable-background="new 0 0 64 64" xml:space="preserve"><g><g><g><g><path d="M55,60H33c-3.859,0-7-3.141-7-7c0-0.553,0.447-1,1-1s1,0.447,1,1c0,2.757,2.243,5,5,5h22c2.757,0,5-2.243,5-5      c0-0.553,0.447-1,1-1s1,0.447,1,1C62,56.859,58.859,60,55,60z"></path></g><g><g><path d="M41.03,5c-0.553,0-1.005-0.447-1.005-1s0.442-1,0.994-1h0.011c0.552,0,1,0.447,1,1S41.582,5,41.03,5z"></path></g><g><path d="M47,5h-3c-0.553,0-1-0.447-1-1s0.447-1,1-1h3c0.553,0,1,0.447,1,1S47.553,5,47,5z"></path></g></g><g><path d="M61,7.002c-0.553,0-1-0.447-1-1c0-2.206-1.794-4-4-4c-0.553,0-1-0.447-1-1s0.447-1,1-1c3.309,0,6,2.691,6,6      C62,6.555,61.553,7.002,61,7.002z"></path></g><g><path d="M27,7c-0.553,0-1-0.447-1-1c0-3.309,2.691-6,6-6c0.553,0,1,0.447,1,1s-0.447,1-1,1c-2.206,0-4,1.794-4,4      C28,6.553,27.553,7,27,7z"></path></g><g><path d="M56,2H32c-0.553,0-1-0.447-1-1s0.447-1,1-1h24c0.553,0,1,0.447,1,1S56.553,2,56,2z"></path></g><g><path d="M61,8.002H27c-0.553,0-1-0.447-1-1s0.447-1,1-1h34c0.553,0,1,0.447,1,1S61.553,8.002,61,8.002z"></path></g><g><g><path d="M55,64H33c-3.859,0-7-3.141-7-7c0-0.553,0.447-1,1-1s1,0.447,1,1c0,2.757,2.243,5,5,5h22c2.757,0,5-2.243,5-5       c0-0.553,0.447-1,1-1s1,0.447,1,1C62,60.859,58.859,64,55,64z"></path></g><g><path d="M61,52H27c-0.553,0-1-0.447-1-1s0.447-1,1-1h34c0.553,0,1,0.447,1,1S61.553,52,61,52z"></path></g><g><path d="M44,58c-1.654,0-3-1.346-3-3s1.346-3,3-3s3,1.346,3,3S45.654,58,44,58z M44,54c-0.552,0-1,0.448-1,1s0.448,1,1,1       s1-0.448,1-1S44.552,54,44,54z"></path></g></g></g><g><path d="M27,58c-0.553,0-1-0.447-1-1V6.002c0-0.553,0.447-1,1-1s1,0.447,1,1V57C28,57.553,27.553,58,27,58z"></path></g><g><path d="M61,58c-0.553,0-1-0.447-1-1V6.002c0-0.553,0.447-1,1-1s1,0.447,1,1V57C62,57.553,61.553,58,61,58z"></path></g><g><path d="M27,50C13.215,50,2,38.785,2,25S13.215,0,27,0c1.201,0,2.409,0.086,3.591,0.256c0.547,0.079,0.926,0.586,0.848,1.133     c-0.079,0.546-0.568,0.928-1.133,0.848C29.219,2.079,28.106,2,27,2C14.317,2,4,12.317,4,25s10.317,23,23,23c0.553,0,1,0.447,1,1     S27.553,50,27,50z"></path></g><g><path d="M21,19c-2.206,0-4-1.794-4-4s1.794-4,4-4s4,1.794,4,4S23.206,19,21,19z M21,13c-1.103,0-2,0.897-2,2s0.897,2,2,2     s2-0.897,2-2S22.103,13,21,13z"></path></g><g><path d="M40.5,19c-1.379,0-2.5-1.121-2.5-2.5s1.121-2.5,2.5-2.5s2.5,1.121,2.5,2.5S41.879,19,40.5,19z M40.5,16     c-0.275,0-0.5,0.225-0.5,0.5s0.225,0.5,0.5,0.5s0.5-0.225,0.5-0.5S40.775,16,40.5,16z"></path></g><g><path d="M40.5,33c-1.379,0-2.5-1.121-2.5-2.5s1.121-2.5,2.5-2.5s2.5,1.121,2.5,2.5S41.879,33,40.5,33z M40.5,30     c-0.275,0-0.5,0.225-0.5,0.5s0.225,0.5,0.5,0.5s0.5-0.225,0.5-0.5S40.775,30,40.5,30z"></path></g><g><path d="M37.5,27c-1.93,0-3.5-1.57-3.5-3.5s1.57-3.5,3.5-3.5s3.5,1.57,3.5,3.5S39.43,27,37.5,27z M37.5,22     c-0.827,0-1.5,0.673-1.5,1.5s0.673,1.5,1.5,1.5s1.5-0.673,1.5-1.5S38.327,22,37.5,22z"></path></g><g><path d="M21,39c-2.206,0-4-1.794-4-4s1.794-4,4-4s4,1.794,4,4S23.206,39,21,39z M21,33c-1.103,0-2,0.897-2,2s0.897,2,2,2     s2-0.897,2-2S22.103,33,21,33z"></path></g><g><path d="M16,30c-2.757,0-5-2.243-5-5s2.243-5,5-5s5,2.243,5,5S18.757,30,16,30z M16,22c-1.654,0-3,1.346-3,3s1.346,3,3,3     s3-1.346,3-3S17.654,22,16,22z"></path></g><g><path d="M27,44.958c-11.028,0-20-8.972-20-20s8.972-20,20-20c0.553,0,1,0.447,1,1s-0.447,1-1,1c-9.925,0-18,8.075-18,18     s8.075,18,18,18c0.553,0,1,0.447,1,1S27.553,44.958,27,44.958z"></path></g><g><path d="M44,38c-7.72,0-14-6.28-14-14s6.28-14,14-14s14,6.28,14,14S51.72,38,44,38z M44,12c-6.617,0-12,5.383-12,12     s5.383,12,12,12s12-5.383,12-12S50.617,12,44,12z"></path></g><g><path d="M47,33c-0.654,0-1.181-0.202-1.566-0.602c-0.725-0.75-0.685-1.903-0.639-3.239c0.048-1.397,0.108-3.136-0.688-4.708     c-1.043-2.06-1.144-3.8-0.3-5.173C44.913,17.479,47.277,17,48.5,17c4.131,0,6.5,2.369,6.5,6.5C55,26.24,51.812,33,47,33z      M46.879,30.996C46.9,30.996,46.941,31,47,31c3.274,0,6-5.445,6-7.5c0-3.028-1.472-4.5-4.5-4.5c-0.841,0-2.396,0.359-2.988,1.325     c-0.455,0.741-0.327,1.825,0.381,3.223c1.027,2.03,0.954,4.141,0.901,5.681c-0.022,0.646-0.053,1.522,0.073,1.769     C46.87,30.996,46.874,30.996,46.879,30.996z"></path></g><g><path d="M49,28c-0.553,0-1-0.447-1-1v-5c0-0.553,0.447-1,1-1s1,0.447,1,1v5C50,27.553,49.553,28,49,28z"></path></g><g><path d="M50,23h-2c-0.553,0-1-0.447-1-1s0.447-1,1-1h2c0.553,0,1,0.447,1,1S50.553,23,50,23z"></path></g><g><path d="M44,48L44,48c-0.266,0-0.52-0.105-0.707-0.293l-2.337-2.337c-0.487-0.485-0.754-1.128-0.754-1.812     c-0.001-0.684,0.266-1.326,0.749-1.81c0.788-0.791,2.091-0.963,3.048-0.43c0.953-0.53,2.259-0.364,3.052,0.433     c0.481,0.48,0.748,1.123,0.747,1.807c0,0.684-0.267,1.326-0.75,1.808l-2.341,2.341C44.52,47.895,44.266,48,44,48z M42.759,43     c-0.148,0-0.287,0.058-0.392,0.162c-0.107,0.107-0.165,0.247-0.165,0.396c0,0.148,0.058,0.287,0.162,0.392L44,45.586l1.635-1.635     c0.105-0.105,0.163-0.244,0.163-0.393c0-0.149-0.058-0.289-0.162-0.394c-0.217-0.216-0.58-0.212-0.789-0.002l-0.145,0.143     c-0.389,0.385-1.016,0.385-1.404,0l-0.139-0.137C43.048,43.058,42.908,43,42.759,43z"></path></g><g><path d="M53,48L53,48c-0.266,0-0.52-0.105-0.707-0.293l-2.337-2.337c-0.487-0.485-0.754-1.128-0.754-1.812     c-0.001-0.684,0.266-1.326,0.749-1.81c0.789-0.791,2.091-0.963,3.048-0.43c0.953-0.53,2.26-0.364,3.052,0.433     c0.481,0.48,0.748,1.123,0.747,1.807c0,0.684-0.267,1.326-0.75,1.808l-2.341,2.341C53.52,47.895,53.266,48,53,48z M51.759,43     c-0.148,0-0.287,0.058-0.392,0.162c-0.107,0.107-0.165,0.247-0.165,0.396c0,0.148,0.058,0.287,0.162,0.392L53,45.586l1.635-1.635     c0.105-0.105,0.163-0.244,0.163-0.393c0-0.149-0.058-0.289-0.162-0.394c-0.216-0.216-0.579-0.212-0.789-0.002l-0.145,0.143     c-0.389,0.385-1.016,0.385-1.404,0l-0.139-0.137C52.048,43.058,51.908,43,51.759,43z"></path></g><g><path d="M35,48L35,48c-0.266,0-0.52-0.105-0.707-0.293l-2.337-2.337c-0.487-0.485-0.754-1.128-0.754-1.812     c-0.001-0.684,0.266-1.326,0.749-1.81c0.789-0.791,2.092-0.963,3.048-0.43c0.954-0.53,2.26-0.364,3.052,0.433     c0.481,0.48,0.748,1.123,0.747,1.807c0,0.684-0.267,1.326-0.75,1.808l-2.341,2.341C35.52,47.895,35.266,48,35,48z M33.759,43     c-0.148,0-0.287,0.058-0.392,0.162c-0.107,0.107-0.165,0.247-0.165,0.396c0,0.148,0.058,0.287,0.162,0.392L35,45.586l1.635-1.635     c0.105-0.105,0.163-0.244,0.163-0.393c0-0.149-0.058-0.289-0.162-0.394c-0.216-0.216-0.579-0.212-0.789-0.002l-0.145,0.143     c-0.389,0.385-1.016,0.385-1.404,0l-0.139-0.137C34.048,43.058,33.908,43,33.759,43z"></path></g></g></g></svg>