<svg height='300px' width='300px'  fill="#000000" xmlns="http://www.w3.org/2000/svg" xmlns:xlink="http://www.w3.org/1999/xlink" version="1.1" x="0px" y="0px" viewBox="0 0 24 24" style="enable-background:new 0 0 24 24;" xml:space="preserve"><g><polygon points="21,8 19,8 19,11 16,11 16,13 19,13 19,16 21,16 21,13 24,13 24,11 21,11  "></polygon><path d="M2,10c0.414,0,0.739,0.178,1,0.45v4.827C2.404,15.624,2,16.262,2,17v7h4v-7c0-0.738-0.404-1.376-1-1.723V10.45   C5.261,10.178,5.586,10,6,10c2,0,2-3,2-3V0H6v7H5V0H3v7H2V0H0v7C0,7,0,10,2,10z"></path><path d="M15,3c0-1.656-1.344-3-3-3c-1.656,0-3,1.344-3,3v6c0,1.656,1.344,3,3,3v12h3v-7.848c-0.936-1.127-1.5-2.573-1.5-4.152   s0.564-3.025,1.5-4.152V3z"></path></g></svg>