<?xml version="1.0" encoding="iso-8859-1"?>
<!-- Generator: Adobe Illustrator 17.1.0, SVG Export Plug-In . SVG Version: 6.00 Build 0)  -->
<!DOCTYPE svg PUBLIC "-//W3C//DTD SVG 1.1//EN" "http://www.w3.org/Graphics/SVG/1.1/DTD/svg11.dtd">
<svg version="1.1" id="Capa_1" xmlns="http://www.w3.org/2000/svg" xmlns:xlink="http://www.w3.org/1999/xlink" x="0px" y="0px"
	 viewBox="0 0 373.088 373.088" style="enable-background:new 0 0 373.088 373.088;" xml:space="preserve">
<path d="M364.088,320.959h-9.291v-25.456v-58.584c0-18.823-15.314-34.137-34.138-34.137H141.481
	c-4.043-16.36-18.838-28.529-36.428-28.529c-20.694,0-37.531,16.835-37.531,37.529c0,2.487,0.263,4.945,0.743,7.351l-22.505-1.616
	c-0.638-0.045-1.282-0.069-1.917-0.069c-14.329,0-25.553,11.281-25.553,25.682v17.915v59.914H9c-4.971,0-9,4.029-9,9s4.029,9,9,9
	h18.231c0.02,0,0.039,0.003,0.058,0.003h318.508c0.02,0,0.038-0.003,0.058-0.003h18.233c4.971,0,9-4.029,9-9
	S369.059,320.959,364.088,320.959z M336.797,236.919v49.584H142.579v-25.458v-28.08v-12.184h178.08
	C329.558,220.781,336.797,228.021,336.797,236.919z M85.521,211.781c0-10.768,8.762-19.529,19.531-19.529
	c10.767,0,19.526,8.761,19.526,19.529v11.395l-36.982-2.656C86.241,217.82,85.521,214.841,85.521,211.781z M36.289,243.13
	c0-4.59,3.579-7.986,8.181-7.659l80.109,5.752v10.822h-88.29V243.13z M36.289,270.045h88.29v25.458c0,4.971,4.029,9,9,9h203.218
	v16.456H36.289V270.045z M132.311,150.768c-0.499,2.884,0.435,5.831,2.505,7.9c2.069,2.07,5.015,3.005,7.9,2.503l25.747-4.463
	c8.333,3.803,17.5,5.802,26.703,5.802c0.001,0,0.002,0,0.003,0c17.144,0,33.262-6.677,45.386-18.801s18.802-28.245,18.802-45.391
	c0-17.147-6.678-33.267-18.802-45.391c-12.125-12.125-28.245-18.802-45.392-18.802c-17.147,0-33.268,6.677-45.393,18.802
	c-19.127,19.127-24.172,47.739-13,72.096L132.311,150.768z M162.499,65.656c8.725-8.725,20.325-13.53,32.664-13.53
	c12.338,0,23.938,4.805,32.663,13.53c8.726,8.724,13.53,20.324,13.53,32.663c0,12.338-4.805,23.938-13.53,32.664
	c-8.725,8.725-20.323,13.529-32.659,13.528c-7.385,0-14.73-1.784-21.243-5.157c-1.286-0.666-2.706-1.008-4.14-1.008
	c-0.513,0-1.027,0.044-1.537,0.132l-16.02,2.777l2.775-16.021c0.335-1.937,0.027-3.929-0.876-5.675
	C144.836,101.616,148.2,79.954,162.499,65.656z M175.056,106.741l12.978-13.969h-6.384c-4.971,0-9-4.029-9-9s4.029-9,9-9h27.029
	c0.084,0,0.166,0.01,0.249,0.013c0.162,0.004,0.323,0.011,0.484,0.024c0.141,0.011,0.28,0.027,0.419,0.045
	c0.151,0.019,0.301,0.042,0.451,0.069c0.144,0.026,0.286,0.055,0.428,0.088c0.143,0.033,0.284,0.07,0.426,0.11
	c0.142,0.04,0.282,0.083,0.421,0.13c0.139,0.047,0.276,0.097,0.413,0.151c0.135,0.053,0.269,0.109,0.401,0.168
	c0.136,0.061,0.27,0.126,0.403,0.194c0.129,0.066,0.255,0.134,0.38,0.206c0.128,0.073,0.254,0.15,0.379,0.23
	c0.126,0.081,0.25,0.166,0.372,0.253c0.115,0.083,0.229,0.167,0.342,0.255c0.126,0.1,0.248,0.203,0.368,0.309
	c0.063,0.055,0.13,0.104,0.192,0.161c0.04,0.037,0.073,0.078,0.113,0.116c0.114,0.11,0.223,0.225,0.332,0.341
	c0.098,0.104,0.196,0.209,0.288,0.317c0.093,0.109,0.179,0.222,0.266,0.336c0.095,0.123,0.19,0.245,0.278,0.371
	c0.075,0.109,0.144,0.222,0.215,0.335c0.085,0.135,0.171,0.27,0.248,0.408c0.066,0.118,0.124,0.241,0.185,0.363
	c0.068,0.137,0.138,0.274,0.199,0.414c0.058,0.134,0.108,0.272,0.16,0.409c0.05,0.134,0.103,0.267,0.147,0.402
	c0.047,0.144,0.085,0.292,0.125,0.439c0.036,0.135,0.074,0.27,0.104,0.406c0.032,0.144,0.055,0.291,0.08,0.437
	c0.025,0.147,0.05,0.294,0.067,0.441c0.016,0.137,0.025,0.275,0.035,0.413c0.012,0.163,0.022,0.325,0.025,0.489
	c0.001,0.052,0.008,0.104,0.008,0.156c0,0.082-0.01,0.162-0.012,0.243c-0.004,0.164-0.011,0.328-0.025,0.492
	c-0.011,0.139-0.027,0.277-0.044,0.415c-0.019,0.152-0.042,0.303-0.069,0.453c-0.026,0.144-0.055,0.286-0.088,0.427
	c-0.033,0.142-0.069,0.283-0.109,0.424c-0.04,0.143-0.084,0.284-0.131,0.424c-0.046,0.137-0.096,0.273-0.149,0.408
	c-0.054,0.137-0.111,0.273-0.171,0.407c-0.06,0.133-0.124,0.264-0.19,0.395c-0.067,0.132-0.137,0.261-0.211,0.388
	c-0.072,0.125-0.146,0.248-0.225,0.37c-0.083,0.13-0.17,0.257-0.26,0.382c-0.08,0.112-0.162,0.222-0.247,0.331
	c-0.102,0.13-0.209,0.255-0.319,0.38c-0.054,0.061-0.1,0.125-0.156,0.185l-12.978,13.969h6.384c4.971,0,9,4.029,9,9s-4.029,9-9,9
	h-27.029c0,0-0.001,0-0.001,0h-0.001c-0.291,0-0.581-0.016-0.87-0.044c-0.108-0.01-0.213-0.03-0.32-0.044
	c-0.178-0.024-0.357-0.047-0.534-0.082c-0.124-0.024-0.245-0.056-0.367-0.085c-0.157-0.037-0.314-0.074-0.469-0.121
	c-0.124-0.037-0.245-0.08-0.366-0.122c-0.15-0.052-0.3-0.104-0.448-0.164c-0.118-0.048-0.233-0.101-0.348-0.153
	c-0.146-0.066-0.291-0.134-0.433-0.209c-0.113-0.059-0.224-0.123-0.334-0.187c-0.136-0.079-0.271-0.159-0.405-0.246
	c-0.113-0.073-0.222-0.151-0.332-0.229c-0.122-0.087-0.243-0.176-0.361-0.27c-0.114-0.09-0.223-0.185-0.332-0.28
	c-0.067-0.059-0.138-0.111-0.204-0.172c-0.04-0.037-0.073-0.078-0.113-0.116c-0.114-0.11-0.223-0.225-0.332-0.341
	c-0.098-0.104-0.196-0.209-0.288-0.317c-0.093-0.109-0.179-0.222-0.266-0.336c-0.095-0.123-0.19-0.245-0.278-0.371
	c-0.075-0.109-0.144-0.222-0.215-0.335c-0.085-0.135-0.171-0.27-0.248-0.408c-0.066-0.118-0.124-0.24-0.184-0.362
	c-0.069-0.138-0.139-0.275-0.2-0.416c-0.058-0.133-0.107-0.27-0.159-0.406c-0.051-0.134-0.104-0.268-0.148-0.404
	c-0.047-0.144-0.085-0.292-0.125-0.439c-0.036-0.135-0.074-0.27-0.104-0.406c-0.032-0.144-0.055-0.291-0.08-0.437
	c-0.025-0.147-0.05-0.294-0.067-0.441c-0.016-0.137-0.025-0.275-0.035-0.413c-0.012-0.163-0.022-0.325-0.025-0.489
	c-0.001-0.052-0.008-0.104-0.008-0.156c0-0.082,0.01-0.162,0.012-0.243c0.004-0.164,0.011-0.328,0.025-0.492
	c0.011-0.139,0.027-0.277,0.044-0.415c0.019-0.152,0.042-0.303,0.069-0.453c0.026-0.144,0.055-0.286,0.088-0.427
	c0.033-0.142,0.069-0.283,0.109-0.424c0.04-0.143,0.084-0.284,0.131-0.424c0.046-0.137,0.096-0.273,0.15-0.409
	c0.054-0.137,0.11-0.272,0.171-0.406c0.06-0.133,0.124-0.265,0.191-0.396c0.067-0.132,0.137-0.261,0.211-0.388
	c0.072-0.125,0.146-0.248,0.225-0.37c0.083-0.13,0.17-0.257,0.26-0.382c0.08-0.112,0.162-0.222,0.247-0.331
	c0.102-0.13,0.209-0.255,0.319-0.38C174.954,106.865,175,106.801,175.056,106.741z"/>
<g>
</g>
<g>
</g>
<g>
</g>
<g>
</g>
<g>
</g>
<g>
</g>
<g>
</g>
<g>
</g>
<g>
</g>
<g>
</g>
<g>
</g>
<g>
</g>
<g>
</g>
<g>
</g>
<g>
</g>
</svg>
